<?xml version="1.0" encoding="utf-8"?>
<!-- Generator: Adobe Illustrator 19.2.1, SVG Export Plug-In . SVG Version: 6.00 Build 0)  -->
<svg version="1.1" id="Слой_1" xmlns="http://www.w3.org/2000/svg" xmlns:xlink="http://www.w3.org/1999/xlink" x="0px" y="0px"
	 viewBox="0 0 25 25" style="enable-background:new 0 0 25 25;" xml:space="preserve">
<title>button-close</title>
<desc>Created with Sketch.</desc>
<g>
	<path d="M12.6,12.6L12.6,12.6c-0.4,0.4-1,0.4-1.4,0L7.3,8.7c-0.4-0.4-0.4-1,0-1.4l0,0c0.4-0.4,1-0.4,1.4,0l3.9,3.9
		C13,11.6,13,12.2,12.6,12.6z"/>
	<path d="M12.4,12.6L12.4,12.6c0.4,0.4,1,0.4,1.4,0l3.9-3.9c0.4-0.4,0.4-1,0-1.4l0,0c-0.4-0.4-1-0.4-1.4,0l-3.9,3.9
		C12,11.6,12,12.2,12.4,12.6z"/>
	<path d="M12.4,12.4L12.4,12.4c0.4-0.4,1-0.4,1.4,0l3.9,3.9c0.4,0.4,0.4,1,0,1.4l0,0c-0.4,0.4-1,0.4-1.4,0l-3.9-3.9
		C12,13.4,12,12.8,12.4,12.4z"/>
	<path d="M12.6,12.4L12.6,12.4c-0.4-0.4-1-0.4-1.4,0l-3.9,3.9c-0.4,0.4-0.4,1,0,1.4l0,0c0.4,0.4,1,0.4,1.4,0l3.9-3.9
		C13,13.4,13,12.8,12.6,12.4z"/>
</g>
</svg>
